<svg width="20" height="20" viewBox="0 0 20 20" fill="none" xmlns="http://www.w3.org/2000/svg">
<path opacity="0.2" d="M12.9001 2.5H6.26675C3.39175 2.5 1.66675 4.21667 1.66675 7.1V13.725C1.66675 16.6167 3.39175 18.3333 6.26675 18.3333H12.8917C15.7751 18.3333 17.4917 16.6167 17.4917 13.7333V7.1C17.5001 4.21667 15.7751 2.5 12.9001 2.5Z" fill="#4744FF"/>
<path d="M17.5167 2.48333C16.0251 0.983329 14.5667 0.949996 13.0334 2.48333L12.0917 3.41666C12.0084 3.5 11.9834 3.61666 12.0167 3.725C12.6001 5.76666 14.2334 7.4 16.2751 7.98333C16.3001 7.99166 16.3417 7.99166 16.3667 7.99166C16.4501 7.99166 16.5334 7.95833 16.5917 7.9L17.5167 6.96666C18.2751 6.20833 18.6501 5.48333 18.6501 4.74166C18.6501 3.99166 18.2751 3.25 17.5167 2.48333Z" fill="#4744FF"/>
<path d="M14.8833 8.68334C14.6583 8.57501 14.4417 8.46668 14.2417 8.34168C14.075 8.24168 13.9083 8.13334 13.75 8.01668C13.6167 7.93335 13.4667 7.80835 13.3167 7.68335C13.3 7.67501 13.25 7.63335 13.1833 7.56668C12.925 7.35835 12.65 7.07501 12.3917 6.76668C12.375 6.75001 12.325 6.70001 12.2833 6.62501C12.2 6.53334 12.075 6.37501 11.9667 6.20001C11.875 6.08335 11.7667 5.91668 11.6667 5.74168C11.5417 5.53335 11.4333 5.32501 11.3333 5.10835C11.225 4.87501 11.1417 4.65835 11.0667 4.45001L6.58334 8.93335C6.29167 9.22501 6.00834 9.77501 5.95 10.1833L5.59167 12.6667C5.51667 13.1917 5.65834 13.6833 5.98334 14.0083C6.25834 14.2833 6.63334 14.425 7.05 14.425C7.14167 14.425 7.23334 14.4167 7.325 14.4083L9.8 14.0583C10.2083 14 10.7583 13.725 11.05 13.425L15.5333 8.94168C15.325 8.87501 15.1167 8.78335 14.8833 8.68334Z" fill="#4744FF"/>
</svg>
