<svg width="48" height="44" viewBox="0 0 48 44" fill="none" xmlns="http://www.w3.org/2000/svg">
<g filter="url(#filter0_d_67_3)">
<path d="M17.4947 39.5H14.999C14.7483 39.4999 14.5015 39.437 14.2814 39.3169C14.0612 39.1969 13.8747 39.0235 13.7388 38.8128C13.6029 38.602 13.5221 38.3606 13.5036 38.1105C13.4851 37.8604 13.5297 37.6097 13.6331 37.3812L19.6762 24.0453L10.6022 23.8438L7.29279 27.8534C6.66185 28.6466 6.15841 29 4.87404 29H3.19404C2.92804 29.0086 2.6639 28.9529 2.424 28.8377C2.1841 28.7224 1.97551 28.5511 1.81591 28.3381C1.59279 28.0372 1.37341 27.5272 1.58716 26.7997L3.44529 20.1434C3.45935 20.0938 3.47622 20.0441 3.49497 19.9953C3.49591 19.9907 3.49591 19.9859 3.49497 19.9813C3.47561 19.9325 3.45902 19.8828 3.44529 19.8322L1.58529 13.1337C1.38372 12.4203 1.60404 11.9216 1.82529 11.6281C1.97386 11.431 2.16661 11.2715 2.38805 11.1624C2.60949 11.0533 2.85344 10.9977 3.10029 11L4.87404 11C5.8331 11 6.76404 11.4303 7.31154 12.125L10.5525 16.0672L19.6762 15.9322L13.635 2.61969C13.5314 2.39136 13.4867 2.14071 13.505 1.89065C13.5233 1.6406 13.6039 1.39911 13.7396 1.18827C13.8753 0.97743 14.0616 0.803964 14.2817 0.683729C14.5017 0.563494 14.7483 0.500326 14.999 0.5L17.5218 0.5C17.8738 0.507073 18.2197 0.593339 18.5337 0.752394C18.8478 0.911448 19.1219 1.1392 19.3359 1.41875L31.0593 15.6688L36.4753 15.5262C36.8718 15.5047 37.9706 15.4972 38.2247 15.4972C43.4053 15.5 46.499 17.1819 46.499 20C46.499 20.8869 46.1447 22.5313 43.7737 23.5775C42.374 24.1963 40.5065 24.5094 38.2228 24.5094C37.9715 24.5094 36.8756 24.5019 36.4734 24.4803L31.0584 24.3359L19.3059 38.5859C19.0918 38.8643 18.8178 39.0909 18.5043 39.2491C18.1908 39.4073 17.8458 39.4931 17.4947 39.5Z" fill="url(#paint0_linear_67_3)"/>
</g>
<defs>
<filter id="filter0_d_67_3" x="-1.5" y="0.5" width="50.999" height="46" filterUnits="userSpaceOnUse" color-interpolation-filters="sRGB">
<feFlood flood-opacity="0" result="BackgroundImageFix"/>
<feColorMatrix in="SourceAlpha" type="matrix" values="0 0 0 0 0 0 0 0 0 0 0 0 0 0 0 0 0 0 127 0" result="hardAlpha"/>
<feOffset dy="4"/>
<feGaussianBlur stdDeviation="1.5"/>
<feComposite in2="hardAlpha" operator="out"/>
<feColorMatrix type="matrix" values="0 0 0 0 0.211765 0 0 0 0 0.196078 0 0 0 0 0.968627 0 0 0 0.36 0"/>
<feBlend mode="normal" in2="BackgroundImageFix" result="effect1_dropShadow_67_3"/>
<feBlend mode="normal" in="SourceGraphic" in2="effect1_dropShadow_67_3" result="shape"/>
</filter>
<linearGradient id="paint0_linear_67_3" x1="23.9995" y1="0.5" x2="23.9995" y2="39.5" gradientUnits="userSpaceOnUse">
<stop offset="0.16" stop-color="#4744FF"/>
<stop offset="1" stop-color="#1511E7"/>
</linearGradient>
</defs>
</svg>
