<svg width="20" height="20" viewBox="0 0 20 20" fill="none" xmlns="http://www.w3.org/2000/svg">
<path opacity="0.4" d="M9.13325 1.75834L4.54992 3.47501C3.67492 3.80834 2.95825 4.84167 2.95825 5.78334V12.5333C2.95825 13.2083 3.39992 14.1 3.94159 14.5L8.52492 17.925C9.33325 18.5333 10.6583 18.5333 11.4666 17.925L16.0499 14.5C16.5916 14.0917 17.0333 13.2083 17.0333 12.5333V5.78334C17.0333 4.85001 16.3166 3.80834 15.4416 3.48334L10.8583 1.76667C10.3916 1.58334 9.60825 1.58334 9.13325 1.75834Z" fill="#4C4C4C"/>
<path d="M12.0834 8.75001C12.0834 7.60001 11.1501 6.66667 10.0001 6.66667C8.85008 6.66667 7.91675 7.60001 7.91675 8.75001C7.91675 9.68334 8.53341 10.4583 9.37508 10.725V12.9167C9.37508 13.2583 9.65841 13.5417 10.0001 13.5417C10.3417 13.5417 10.6251 13.2583 10.6251 12.9167V10.725C11.4667 10.4583 12.0834 9.68334 12.0834 8.75001Z" fill="#4C4C4C"/>
</svg>
